<svg width="34" height="43" viewBox="0 0 34 43" fill="none" xmlns="http://www.w3.org/2000/svg">
<path d="M16.9987 22.1041C18.1793 22.1041 19.1862 21.6875 20.0195 20.8541C20.8529 20.0208 21.2695 19.0138 21.2695 17.8333C21.2695 16.6527 20.8529 15.6458 20.0195 14.8125C19.1862 13.9791 18.1793 13.5625 16.9987 13.5625C15.8181 13.5625 14.8112 13.9791 13.9779 14.8125C13.1445 15.6458 12.7279 16.6527 12.7279 17.8333C12.7279 19.0138 13.1445 20.0208 13.9779 20.8541C14.8112 21.6875 15.8181 22.1041 16.9987 22.1041ZM16.9987 36.9479C21.1306 33.1284 24.1952 29.6562 26.1924 26.5312C28.1883 23.4062 29.1862 20.6458 29.1862 18.25C29.1862 14.5347 28.0147 11.5048 25.6716 9.16038C23.3272 6.81732 20.4362 5.64579 16.9987 5.64579C13.5612 5.64579 10.6709 6.81732 8.32786 9.16038C5.98342 11.5048 4.8112 14.5347 4.8112 18.25C4.8112 20.6458 5.80981 23.4062 7.80703 26.5312C9.80286 29.6562 12.8668 33.1284 16.9987 36.9479ZM16.9987 42.2604C16.6862 42.2604 16.3654 42.2 16.0362 42.0791C15.7056 41.9569 15.4015 41.7916 15.1237 41.5833C10.0543 37.0694 6.26953 32.8854 3.76953 29.0312C1.26953 25.177 0.0195312 21.5833 0.0195312 18.25C0.0195312 12.9375 1.72925 8.70968 5.1487 5.56663C8.56953 2.42496 12.5195 0.854126 16.9987 0.854126C21.4779 0.854126 25.4279 2.42496 28.8487 5.56663C32.2681 8.70968 33.9779 12.9375 33.9779 18.25C33.9779 21.5833 32.7279 25.177 30.2279 29.0312C27.7279 32.8854 23.9431 37.0694 18.8737 41.5833C18.5959 41.7916 18.2924 41.9569 17.9633 42.0791C17.6327 42.2 17.3112 42.2604 16.9987 42.2604Z" fill="#1B1814"/>
</svg>
