<?xml version="1.0" standalone="no"?>
<!DOCTYPE svg PUBLIC "-//W3C//DTD SVG 20010904//EN"
 "http://www.w3.org/TR/2001/REC-SVG-20010904/DTD/svg10.dtd">
<svg version="1.0" xmlns="http://www.w3.org/2000/svg"
 width="512.000000pt" height="512.000000pt" viewBox="0 0 512.000000 512.000000"
 preserveAspectRatio="xMidYMid meet">
<metadata>
Created by potrace 1.14, written by Peter Selinger 2001-2017
</metadata>
<g transform="translate(0.000000,512.000000) scale(0.100000,-0.100000)"
fill="#000000" stroke="none">
<path d="M2330 4469 c-30 -4 -73 -10 -95 -13 -52 -6 -183 -34 -215 -45 -14 -5
-50 -17 -80 -26 -207 -63 -432 -198 -598 -356 -257 -247 -453 -641 -508 -1019
-2 -19 -6 -44 -9 -55 -26 -125 -27 -707 -1 -787 3 -7 7 -33 10 -58 2 -25 14
-90 26 -145 83 -380 286 -729 550 -943 25 -21 51 -42 57 -49 63 -58 297 -184
423 -226 232 -77 395 -102 680 -102 214 0 269 5 449 40 421 81 795 337 1011
690 146 238 246 559 277 885 10 102 10 474 0 584 -4 49 -17 139 -27 200 -18
101 -26 134 -62 261 -41 145 -131 341 -216 470 -112 169 -310 365 -447 441
-11 6 -52 29 -91 51 -172 96 -381 161 -639 199 -65 9 -435 12 -495 3z m462
-718 c171 -46 282 -108 398 -223 124 -124 203 -273 251 -476 24 -99 25 -105
44 -272 13 -106 7 -415 -10 -520 -2 -14 -6 -45 -10 -70 -16 -106 -68 -277
-112 -369 -68 -143 -143 -239 -248 -318 -74 -56 -131 -85 -231 -119 -102 -34
-144 -39 -304 -38 -107 1 -152 5 -220 24 -220 59 -387 176 -507 355 -73 110
-148 280 -168 384 -2 13 -6 30 -9 39 -3 9 -7 34 -10 55 -13 84 -16 104 -21
147 -6 52 -7 385 -1 415 2 11 7 49 11 85 10 97 50 256 85 344 127 321 347 513
655 572 100 19 308 11 407 -15z"/>
</g>
</svg>
